<svg xmlns="http://www.w3.org/2000/svg" xmlns:xlink="http://www.w3.org/1999/xlink" viewBox="0 0 266 132" width="266" height="132" preserveAspectRatio="xMidYMid meet" style="width: 100%; height: 100%; transform: translate3d(0px, 0px, 0px); content-visibility: visible;"><defs><clipPath id="__lottie_element_503"><rect width="266" height="132" x="0" y="0"></rect></clipPath></defs><g clip-path="url(#__lottie_element_503)"><g style="display: block;" transform="matrix(0.5,0,0,0.5,137.8094940185547,97.66999816894531)" opacity="0.999995992257848" fill="rgb(255,255,255)" font-size="96" font-family="Gridular" font-style="normal" font-weight="400" aria-label="Night"><g stroke-linecap="butt" stroke-linejoin="round" stroke-miterlimit="4" transform="matrix(1,0,0,1,-149.3280029296875,0)" opacity="1" style="display: inherit;"><g><g transform="matrix(1,0,0,1,0,0)" opacity="1" style="display: block;"><path d=" M54.24,-29 C54.24,-29 64.1,-29 64.1,-29 C64.1,-29 64.1,-67.68 64.1,-67.68 C64.1,-67.68 54.24,-67.68 54.24,-67.68 C54.24,-67.68 54.24,-29 54.24,-29z M4.93,0 C4.93,0 14.79,0 14.79,0 C14.79,0 14.79,-48.34 14.79,-48.34 C14.79,-48.34 4.93,-48.34 4.93,-48.34 C4.93,-48.34 4.93,0 4.93,0z M7.15,-58.01 C7.15,-58.01 12.57,-58.01 12.57,-58.01 C13.82,-58.01 14.79,-57.04 14.79,-55.78 C14.79,-55.78 14.79,-50.56 14.79,-50.56 C14.79,-49.31 15.76,-48.34 17.02,-48.34 C17.02,-48.34 22.43,-48.34 22.43,-48.34 C23.69,-48.34 24.65,-47.37 24.65,-46.12 C24.65,-46.12 24.65,-40.9 24.65,-40.9 C24.65,-39.64 25.62,-38.67 26.88,-38.67 C26.88,-38.67 32.29,-38.67 32.29,-38.67 C33.55,-38.67 34.51,-37.7 34.51,-36.45 C34.51,-36.45 34.51,-31.23 34.51,-31.23 C34.51,-29.97 35.48,-29 36.74,-29 C36.74,-29 42.15,-29 42.15,-29 C43.41,-29 44.38,-28.04 44.38,-26.78 C44.38,-26.78 44.38,-21.56 44.38,-21.56 C44.38,-20.3 45.34,-19.34 46.6,-19.34 C46.6,-19.34 52.01,-19.34 52.01,-19.34 C53.27,-19.34 54.24,-18.37 54.24,-17.11 C54.24,-17.11 54.24,0 54.24,0 C54.24,0 64.1,0 64.1,0 C64.1,0 64.1,-17.11 64.1,-17.11 C64.1,-18.37 63.13,-19.34 61.87,-19.34 C61.87,-19.34 56.46,-19.34 56.46,-19.34 C55.2,-19.34 54.24,-20.3 54.24,-21.56 C54.24,-21.56 54.24,-26.78 54.24,-26.78 C54.24,-28.04 53.27,-29 52.01,-29 C52.01,-29 46.6,-29 46.6,-29 C45.34,-29 44.38,-29.97 44.38,-31.23 C44.38,-31.23 44.38,-36.45 44.38,-36.45 C44.38,-37.7 43.41,-38.67 42.15,-38.67 C42.15,-38.67 36.74,-38.67 36.74,-38.67 C35.48,-38.67 34.51,-39.64 34.51,-40.9 C34.51,-40.9 34.51,-46.12 34.51,-46.12 C34.51,-47.37 33.55,-48.34 32.29,-48.34 C32.29,-48.34 26.88,-48.34 26.88,-48.34 C25.62,-48.34 24.65,-49.31 24.65,-50.56 C24.65,-50.56 24.65,-55.78 24.65,-55.78 C24.65,-57.04 23.69,-58.01 22.43,-58.01 C22.43,-58.01 17.02,-58.01 17.02,-58.01 C15.76,-58.01 14.79,-58.97 14.79,-60.23 C14.79,-60.23 14.79,-65.45 14.79,-65.45 C14.79,-66.71 13.82,-67.68 12.57,-67.68 C12.57,-67.68 7.15,-67.68 7.15,-67.68 C5.9,-67.68 4.93,-66.71 4.93,-65.45 C4.93,-65.45 4.93,-60.23 4.93,-60.23 C4.93,-58.97 5.9,-58.01 7.15,-58.01z"></path><g opacity="1" transform="matrix(0.9599999785423279,0,0,0.9599999785423279,0,0)"></g></g></g></g><g stroke-linecap="butt" stroke-linejoin="round" stroke-miterlimit="4" transform="matrix(1,0,0,1,-80.78400421142578,0)" opacity="1" style="display: inherit;"><g><g transform="matrix(1,0,0,1,0,0)" opacity="1" style="display: block;"><path d=" M24.65,-56.46 C24.65,-55.2 25.62,-54.24 26.88,-54.24 C26.88,-54.24 32.29,-54.24 32.29,-54.24 C33.55,-54.24 34.51,-55.2 34.51,-56.46 C34.51,-56.46 34.51,-61.68 34.51,-61.68 C34.51,-62.94 33.55,-63.91 32.29,-63.91 C32.29,-63.91 26.88,-63.91 26.88,-63.91 C25.62,-63.91 24.65,-62.94 24.65,-61.68 C24.65,-61.68 24.65,-56.46 24.65,-56.46z M24.65,-2.22 C24.65,-2.22 24.65,-7.44 24.65,-7.44 C24.65,-8.7 25.62,-9.67 26.88,-9.67 C26.88,-9.67 32.29,-9.67 32.29,-9.67 C33.55,-9.67 34.51,-8.7 34.51,-7.44 C34.51,-7.44 34.51,-2.22 34.51,-2.22 C34.51,-0.97 35.48,0 36.74,0 C36.74,0 54.24,0 54.24,0 C54.24,0 54.24,-9.67 54.24,-9.67 C54.24,-9.67 36.74,-9.67 36.74,-9.67 C35.48,-9.67 34.51,-10.63 34.51,-11.89 C34.51,-11.89 34.51,-36.45 34.51,-36.45 C34.51,-37.7 33.55,-38.67 32.29,-38.67 C32.29,-38.67 26.88,-38.67 26.88,-38.67 C25.62,-38.67 24.65,-39.64 24.65,-40.9 C24.65,-40.9 24.65,-46.12 24.65,-46.12 C24.65,-47.37 23.69,-48.34 22.43,-48.34 C22.43,-48.34 4.93,-48.34 4.93,-48.34 C4.93,-48.34 4.93,-38.67 4.93,-38.67 C4.93,-38.67 22.43,-38.67 22.43,-38.67 C23.69,-38.67 24.65,-37.7 24.65,-36.45 C24.65,-36.45 24.65,-11.89 24.65,-11.89 C24.65,-10.63 23.69,-9.67 22.43,-9.67 C22.43,-9.67 4.93,-9.67 4.93,-9.67 C4.93,-9.67 4.93,0 4.93,0 C4.93,0 22.43,0 22.43,0 C23.69,0 24.65,-0.97 24.65,-2.22z"></path><g opacity="1" transform="matrix(0.9599999785423279,0,0,0.9599999785423279,0,0)"></g></g></g></g><g stroke-linecap="butt" stroke-linejoin="round" stroke-miterlimit="4" transform="matrix(1,0,0,1,-22.032001495361328,0)" opacity="1" style="display: inherit;"><g><g transform="matrix(1,0,0,1,0,0)" opacity="1" style="display: block;"><path d=" M4.93,19.34 C4.93,19.34 42.15,19.34 42.15,19.34 C43.41,19.34 44.38,18.37 44.38,17.11 C44.38,17.11 44.38,11.89 44.38,11.89 C44.38,10.63 45.34,9.67 46.6,9.67 C46.6,9.67 52.01,9.67 52.01,9.67 C53.27,9.67 54.24,8.7 54.24,7.44 C54.24,7.44 54.24,-36.45 54.24,-36.45 C54.24,-37.7 53.27,-38.67 52.01,-38.67 C52.01,-38.67 46.6,-38.67 46.6,-38.67 C45.34,-38.67 44.38,-39.64 44.38,-40.9 C44.38,-40.9 44.38,-46.12 44.38,-46.12 C44.38,-47.37 43.41,-48.34 42.15,-48.34 C42.15,-48.34 17.02,-48.34 17.02,-48.34 C15.76,-48.34 14.79,-47.37 14.79,-46.12 C14.79,-46.12 14.79,-40.9 14.79,-40.9 C14.79,-39.64 13.82,-38.67 12.57,-38.67 C12.57,-38.67 7.15,-38.67 7.15,-38.67 C5.9,-38.67 4.93,-37.7 4.93,-36.45 C4.93,-36.45 4.93,-11.89 4.93,-11.89 C4.93,-10.63 5.9,-9.67 7.15,-9.67 C7.15,-9.67 12.57,-9.67 12.57,-9.67 C13.82,-9.67 14.79,-8.7 14.79,-7.44 C14.79,-7.44 14.79,-2.22 14.79,-2.22 C14.79,-0.97 15.76,0 17.02,0 C17.02,0 39.45,0 39.45,0 C39.45,0 39.45,-9.67 39.45,-9.67 C39.45,-9.67 17.02,-9.67 17.02,-9.67 C15.76,-9.67 14.79,-10.63 14.79,-11.89 C14.79,-11.89 14.79,-36.45 14.79,-36.45 C14.79,-37.7 15.76,-38.67 17.02,-38.67 C17.02,-38.67 42.15,-38.67 42.15,-38.67 C43.41,-38.67 44.38,-37.7 44.38,-36.45 C44.38,-36.45 44.38,7.44 44.38,7.44 C44.38,8.7 43.41,9.67 42.15,9.67 C42.15,9.67 4.93,9.67 4.93,9.67 C4.93,9.67 4.93,19.34 4.93,19.34z"></path><g opacity="1" transform="matrix(0.9599999785423279,0,0,0.9599999785423279,0,0)"></g></g></g></g><g stroke-linecap="butt" stroke-linejoin="round" stroke-miterlimit="4" transform="matrix(1,0,0,1,36.71999740600586,0)" opacity="1" style="display: inherit;"><g><g transform="matrix(1,0,0,1,0,0)" opacity="1" style="display: block;"><path d=" M19.72,-38.67 C19.72,-38.67 42.15,-38.67 42.15,-38.67 C43.41,-38.67 44.38,-37.7 44.38,-36.45 C44.38,-36.45 44.38,0 44.38,0 C44.38,0 54.24,0 54.24,0 C54.24,0 54.24,-36.45 54.24,-36.45 C54.24,-37.7 53.27,-38.67 52.01,-38.67 C52.01,-38.67 46.6,-38.67 46.6,-38.67 C45.34,-38.67 44.38,-39.64 44.38,-40.9 C44.38,-40.9 44.38,-46.12 44.38,-46.12 C44.38,-47.37 43.41,-48.34 42.15,-48.34 C42.15,-48.34 19.72,-48.34 19.72,-48.34 C19.72,-48.34 19.72,-38.67 19.72,-38.67z M4.93,0 C4.93,0 14.79,0 14.79,0 C14.79,0 14.79,-67.68 14.79,-67.68 C14.79,-67.68 4.93,-67.68 4.93,-67.68 C4.93,-67.68 4.93,0 4.93,0z"></path><g opacity="1" transform="matrix(0.9599999785423279,0,0,0.9599999785423279,0,0)"></g></g></g></g><g stroke-linecap="butt" stroke-linejoin="round" stroke-miterlimit="4" transform="matrix(1,0,0,1,95.47199249267578,0)" opacity="1" style="display: inherit;"><g><g transform="matrix(1,0,0,1,0,0)" opacity="1" style="display: block;"><path d=" M17.02,0 C17.02,0 49.31,0 49.31,0 C49.31,0 49.31,-9.67 49.31,-9.67 C49.31,-9.67 17.02,-9.67 17.02,-9.67 C15.76,-9.67 14.79,-10.63 14.79,-11.89 C14.79,-11.89 14.79,-36.45 14.79,-36.45 C14.79,-37.7 15.76,-38.67 17.02,-38.67 C17.02,-38.67 39.45,-38.67 39.45,-38.67 C39.45,-38.67 39.45,-48.34 39.45,-48.34 C39.45,-48.34 17.02,-48.34 17.02,-48.34 C15.76,-48.34 14.79,-49.31 14.79,-50.56 C14.79,-50.56 14.79,-67.68 14.79,-67.68 C14.79,-67.68 4.93,-67.68 4.93,-67.68 C4.93,-67.68 4.93,-50.56 4.93,-50.56 C4.93,-49.31 5.9,-48.34 7.15,-48.34 C7.15,-48.34 12.57,-48.34 12.57,-48.34 C13.82,-48.34 14.79,-47.37 14.79,-46.12 C14.79,-46.12 14.79,-40.9 14.79,-40.9 C14.79,-39.64 13.82,-38.67 12.57,-38.67 C12.57,-38.67 7.15,-38.67 7.15,-38.67 C5.9,-38.67 4.93,-37.7 4.93,-36.45 C4.93,-36.45 4.93,-11.89 4.93,-11.89 C4.93,-10.63 5.9,-9.67 7.15,-9.67 C7.15,-9.67 12.57,-9.67 12.57,-9.67 C13.82,-9.67 14.79,-8.7 14.79,-7.44 C14.79,-7.44 14.79,-2.22 14.79,-2.22 C14.79,-0.97 15.76,0 17.02,0z"></path><g opacity="1" transform="matrix(0.9599999785423279,0,0,0.9599999785423279,0,0)"></g></g></g></g></g><g transform="matrix(0.5,0,0,0.5,137.7919921875,49.33799743652344)" opacity="0.9499987234570185" fill="rgb(255,255,255)" font-size="96" font-family="Gridular" font-style="normal" font-weight="400" aria-label="Colorful" style="display: block;"><g stroke-linecap="butt" stroke-linejoin="round" stroke-miterlimit="4" transform="matrix(1,0,0,1,-237.45599365234375,0)" opacity="1" style="display: inherit;"><g><g transform="matrix(1,0,0,1,0,0)" opacity="1" style="display: block;"><path d=" M61.87,-58.01 C61.87,-58.01 56.46,-58.01 56.46,-58.01 C55.2,-58.01 54.24,-58.97 54.24,-60.23 C54.24,-60.23 54.24,-65.45 54.24,-65.45 C54.24,-66.71 53.27,-67.68 52.01,-67.68 C52.01,-67.68 17.02,-67.68 17.02,-67.68 C15.76,-67.68 14.79,-66.71 14.79,-65.45 C14.79,-65.45 14.79,-60.23 14.79,-60.23 C14.79,-58.97 13.82,-58.01 12.57,-58.01 C12.57,-58.01 7.15,-58.01 7.15,-58.01 C5.9,-58.01 4.93,-57.04 4.93,-55.78 C4.93,-55.78 4.93,-11.89 4.93,-11.89 C4.93,-10.63 5.9,-9.67 7.15,-9.67 C7.15,-9.67 12.57,-9.67 12.57,-9.67 C13.82,-9.67 14.79,-8.7 14.79,-7.44 C14.79,-7.44 14.79,-2.22 14.79,-2.22 C14.79,-0.97 15.76,0 17.02,0 C17.02,0 52.01,0 52.01,0 C53.27,0 54.24,-0.97 54.24,-2.22 C54.24,-2.22 54.24,-7.44 54.24,-7.44 C54.24,-8.7 55.2,-9.67 56.46,-9.67 C56.46,-9.67 61.87,-9.67 61.87,-9.67 C63.13,-9.67 64.1,-10.63 64.1,-11.89 C64.1,-11.89 64.1,-19.34 64.1,-19.34 C64.1,-19.34 54.24,-19.34 54.24,-19.34 C54.24,-19.34 54.24,-11.89 54.24,-11.89 C54.24,-10.63 53.27,-9.67 52.01,-9.67 C52.01,-9.67 17.02,-9.67 17.02,-9.67 C15.76,-9.67 14.79,-10.63 14.79,-11.89 C14.79,-11.89 14.79,-55.78 14.79,-55.78 C14.79,-57.04 15.76,-58.01 17.02,-58.01 C17.02,-58.01 52.01,-58.01 52.01,-58.01 C53.27,-58.01 54.24,-57.04 54.24,-55.78 C54.24,-55.78 54.24,-48.34 54.24,-48.34 C54.24,-48.34 64.1,-48.34 64.1,-48.34 C64.1,-48.34 64.1,-55.78 64.1,-55.78 C64.1,-57.04 63.13,-58.01 61.87,-58.01z"></path><g opacity="1" transform="matrix(0.9599999785423279,0,0,0.9599999785423279,0,0)"></g></g></g></g><g stroke-linecap="butt" stroke-linejoin="round" stroke-miterlimit="4" transform="matrix(1,0,0,1,-168.9119873046875,0)" opacity="1" style="display: inherit;"><g><g transform="matrix(1,0,0,1,0,0)" opacity="1" style="display: block;"><path d=" M14.79,-11.89 C14.79,-11.89 14.79,-36.45 14.79,-36.45 C14.79,-37.7 15.76,-38.67 17.02,-38.67 C17.02,-38.67 42.15,-38.67 42.15,-38.67 C43.41,-38.67 44.38,-37.7 44.38,-36.45 C44.38,-36.45 44.38,-11.89 44.38,-11.89 C44.38,-10.63 43.41,-9.67 42.15,-9.67 C42.15,-9.67 17.02,-9.67 17.02,-9.67 C15.76,-9.67 14.79,-10.63 14.79,-11.89z M17.02,0 C17.02,0 42.15,0 42.15,0 C43.41,0 44.38,-0.97 44.38,-2.22 C44.38,-2.22 44.38,-7.44 44.38,-7.44 C44.38,-8.7 45.34,-9.67 46.6,-9.67 C46.6,-9.67 52.01,-9.67 52.01,-9.67 C53.27,-9.67 54.24,-10.63 54.24,-11.89 C54.24,-11.89 54.24,-36.45 54.24,-36.45 C54.24,-37.7 53.27,-38.67 52.01,-38.67 C52.01,-38.67 46.6,-38.67 46.6,-38.67 C45.34,-38.67 44.38,-39.64 44.38,-40.9 C44.38,-40.9 44.38,-46.12 44.38,-46.12 C44.38,-47.37 43.41,-48.34 42.15,-48.34 C42.15,-48.34 17.02,-48.34 17.02,-48.34 C15.76,-48.34 14.79,-47.37 14.79,-46.12 C14.79,-46.12 14.79,-40.9 14.79,-40.9 C14.79,-39.64 13.82,-38.67 12.57,-38.67 C12.57,-38.67 7.15,-38.67 7.15,-38.67 C5.9,-38.67 4.93,-37.7 4.93,-36.45 C4.93,-36.45 4.93,-11.89 4.93,-11.89 C4.93,-10.63 5.9,-9.67 7.15,-9.67 C7.15,-9.67 12.57,-9.67 12.57,-9.67 C13.82,-9.67 14.79,-8.7 14.79,-7.44 C14.79,-7.44 14.79,-2.22 14.79,-2.22 C14.79,-0.97 15.76,0 17.02,0z"></path><g opacity="1" transform="matrix(0.9599999785423279,0,0,0.9599999785423279,0,0)"></g></g></g></g><g stroke-linecap="butt" stroke-linejoin="round" stroke-miterlimit="4" transform="matrix(1,0,0,1,-110.15999603271484,0)" opacity="1" style="display: inherit;"><g><g transform="matrix(1,0,0,1,0,0)" opacity="1" style="display: block;"><path d=" M24.65,-2.22 C24.65,-2.22 24.65,-7.44 24.65,-7.44 C24.65,-8.7 25.62,-9.67 26.88,-9.67 C26.88,-9.67 32.29,-9.67 32.29,-9.67 C33.55,-9.67 34.51,-8.7 34.51,-7.44 C34.51,-7.44 34.51,-2.22 34.51,-2.22 C34.51,-0.97 35.48,0 36.74,0 C36.74,0 54.24,0 54.24,0 C54.24,0 54.24,-9.67 54.24,-9.67 C54.24,-9.67 36.74,-9.67 36.74,-9.67 C35.48,-9.67 34.51,-10.63 34.51,-11.89 C34.51,-11.89 34.51,-55.78 34.51,-55.78 C34.51,-57.04 33.55,-58.01 32.29,-58.01 C32.29,-58.01 26.88,-58.01 26.88,-58.01 C25.62,-58.01 24.65,-58.97 24.65,-60.23 C24.65,-60.23 24.65,-65.45 24.65,-65.45 C24.65,-66.71 23.69,-67.68 22.43,-67.68 C22.43,-67.68 4.93,-67.68 4.93,-67.68 C4.93,-67.68 4.93,-58.01 4.93,-58.01 C4.93,-58.01 22.43,-58.01 22.43,-58.01 C23.69,-58.01 24.65,-57.04 24.65,-55.78 C24.65,-55.78 24.65,-11.89 24.65,-11.89 C24.65,-10.63 23.69,-9.67 22.43,-9.67 C22.43,-9.67 4.93,-9.67 4.93,-9.67 C4.93,-9.67 4.93,0 4.93,0 C4.93,0 22.43,0 22.43,0 C23.69,0 24.65,-0.97 24.65,-2.22z"></path><g opacity="1" transform="matrix(0.9599999785423279,0,0,0.9599999785423279,0,0)"></g></g></g></g><g stroke-linecap="butt" stroke-linejoin="round" stroke-miterlimit="4" transform="matrix(1,0,0,1,-51.40800476074219,0)" opacity="1" style="display: inherit;"><g><g transform="matrix(1,0,0,1,0,0)" opacity="1" style="display: block;"><path d=" M14.79,-11.89 C14.79,-11.89 14.79,-36.45 14.79,-36.45 C14.79,-37.7 15.76,-38.67 17.02,-38.67 C17.02,-38.67 42.15,-38.67 42.15,-38.67 C43.41,-38.67 44.38,-37.7 44.38,-36.45 C44.38,-36.45 44.38,-11.89 44.38,-11.89 C44.38,-10.63 43.41,-9.67 42.15,-9.67 C42.15,-9.67 17.02,-9.67 17.02,-9.67 C15.76,-9.67 14.79,-10.63 14.79,-11.89z M17.02,0 C17.02,0 42.15,0 42.15,0 C43.41,0 44.38,-0.97 44.38,-2.22 C44.38,-2.22 44.38,-7.44 44.38,-7.44 C44.38,-8.7 45.34,-9.67 46.6,-9.67 C46.6,-9.67 52.01,-9.67 52.01,-9.67 C53.27,-9.67 54.24,-10.63 54.24,-11.89 C54.24,-11.89 54.24,-36.45 54.24,-36.45 C54.24,-37.7 53.27,-38.67 52.01,-38.67 C52.01,-38.67 46.6,-38.67 46.6,-38.67 C45.34,-38.67 44.38,-39.64 44.38,-40.9 C44.38,-40.9 44.38,-46.12 44.38,-46.12 C44.38,-47.37 43.41,-48.34 42.15,-48.34 C42.15,-48.34 17.02,-48.34 17.02,-48.34 C15.76,-48.34 14.79,-47.37 14.79,-46.12 C14.79,-46.12 14.79,-40.9 14.79,-40.9 C14.79,-39.64 13.82,-38.67 12.57,-38.67 C12.57,-38.67 7.15,-38.67 7.15,-38.67 C5.9,-38.67 4.93,-37.7 4.93,-36.45 C4.93,-36.45 4.93,-11.89 4.93,-11.89 C4.93,-10.63 5.9,-9.67 7.15,-9.67 C7.15,-9.67 12.57,-9.67 12.57,-9.67 C13.82,-9.67 14.79,-8.7 14.79,-7.44 C14.79,-7.44 14.79,-2.22 14.79,-2.22 C14.79,-0.97 15.76,0 17.02,0z"></path><g opacity="1" transform="matrix(0.9599999785423279,0,0,0.9599999785423279,0,0)"></g></g></g></g><g stroke-linecap="butt" stroke-linejoin="round" stroke-miterlimit="4" transform="matrix(1,0,0,1,7.343996524810791,0)" opacity="1" style="display: inherit;"><g><g transform="matrix(1,0,0,1,0,0)" opacity="1" style="display: block;"><path d=" M14.79,-46.12 C14.79,-46.12 14.79,-40.9 14.79,-40.9 C14.79,-39.64 13.82,-38.67 12.57,-38.67 C12.57,-38.67 7.15,-38.67 7.15,-38.67 C5.9,-38.67 4.93,-37.7 4.93,-36.45 C4.93,-36.45 4.93,0 4.93,0 C4.93,0 14.79,0 14.79,0 C14.79,0 14.79,-36.45 14.79,-36.45 C14.79,-37.7 15.76,-38.67 17.02,-38.67 C17.02,-38.67 42.15,-38.67 42.15,-38.67 C43.41,-38.67 44.38,-37.7 44.38,-36.45 C44.38,-36.45 44.38,-29 44.38,-29 C44.38,-29 54.24,-29 54.24,-29 C54.24,-29 54.24,-36.45 54.24,-36.45 C54.24,-37.7 53.27,-38.67 52.01,-38.67 C52.01,-38.67 46.6,-38.67 46.6,-38.67 C45.34,-38.67 44.38,-39.64 44.38,-40.9 C44.38,-40.9 44.38,-46.12 44.38,-46.12 C44.38,-47.37 43.41,-48.34 42.15,-48.34 C42.15,-48.34 17.02,-48.34 17.02,-48.34 C15.76,-48.34 14.79,-47.37 14.79,-46.12z"></path><g opacity="1" transform="matrix(0.9599999785423279,0,0,0.9599999785423279,0,0)"></g></g></g></g><g stroke-linecap="butt" stroke-linejoin="round" stroke-miterlimit="4" transform="matrix(1,0,0,1,66.09599304199219,0)" opacity="1" style="display: inherit;"><g><g transform="matrix(1,0,0,1,0,0)" opacity="1" style="display: block;"><path d=" M7.15,-38.67 C7.15,-38.67 12.57,-38.67 12.57,-38.67 C13.82,-38.67 14.79,-37.7 14.79,-36.45 C14.79,-36.45 14.79,-31.23 14.79,-31.23 C14.79,-29.97 13.82,-29 12.57,-29 C12.57,-29 7.15,-29 7.15,-29 C5.9,-29 4.93,-28.04 4.93,-26.78 C4.93,-26.78 4.93,0 4.93,0 C4.93,0 14.79,0 14.79,0 C14.79,0 14.79,-26.78 14.79,-26.78 C14.79,-28.04 15.76,-29 17.02,-29 C17.02,-29 39.54,-29 39.54,-29 C39.54,-29 39.54,-38.67 39.54,-38.67 C39.54,-38.67 17.02,-38.67 17.02,-38.67 C15.76,-38.67 14.79,-39.64 14.79,-40.9 C14.79,-40.9 14.79,-55.78 14.79,-55.78 C14.79,-57.04 15.76,-58.01 17.02,-58.01 C17.02,-58.01 49.31,-58.01 49.31,-58.01 C49.31,-58.01 49.31,-67.68 49.31,-67.68 C49.31,-67.68 17.02,-67.68 17.02,-67.68 C15.76,-67.68 14.79,-66.71 14.79,-65.45 C14.79,-65.45 14.79,-60.23 14.79,-60.23 C14.79,-58.97 13.82,-58.01 12.57,-58.01 C12.57,-58.01 7.15,-58.01 7.15,-58.01 C5.9,-58.01 4.93,-57.04 4.93,-55.78 C4.93,-55.78 4.93,-40.9 4.93,-40.9 C4.93,-39.64 5.9,-38.67 7.15,-38.67z"></path><g opacity="1" transform="matrix(0.9599999785423279,0,0,0.9599999785423279,0,0)"></g></g></g></g><g stroke-linecap="butt" stroke-linejoin="round" stroke-miterlimit="4" transform="matrix(1,0,0,1,119.95201110839844,0)" opacity="1" style="display: inherit;"><g><g transform="matrix(1,0,0,1,0,0)" opacity="1" style="display: block;"><path d=" M44.38,-2.22 C44.38,-2.22 44.38,-7.44 44.38,-7.44 C44.38,-8.7 45.34,-9.67 46.6,-9.67 C46.6,-9.67 52.01,-9.67 52.01,-9.67 C53.27,-9.67 54.24,-10.63 54.24,-11.89 C54.24,-11.89 54.24,-48.34 54.24,-48.34 C54.24,-48.34 44.38,-48.34 44.38,-48.34 C44.38,-48.34 44.38,-11.89 44.38,-11.89 C44.38,-10.63 43.41,-9.67 42.15,-9.67 C42.15,-9.67 17.02,-9.67 17.02,-9.67 C15.76,-9.67 14.79,-10.63 14.79,-11.89 C14.79,-11.89 14.79,-48.34 14.79,-48.34 C14.79,-48.34 4.93,-48.34 4.93,-48.34 C4.93,-48.34 4.93,-11.89 4.93,-11.89 C4.93,-10.63 5.9,-9.67 7.15,-9.67 C7.15,-9.67 12.57,-9.67 12.57,-9.67 C13.82,-9.67 14.79,-8.7 14.79,-7.44 C14.79,-7.44 14.79,-2.22 14.79,-2.22 C14.79,-0.97 15.76,0 17.02,0 C17.02,0 42.15,0 42.15,0 C43.41,0 44.38,-0.97 44.38,-2.22z"></path><g opacity="1" transform="matrix(0.9599999785423279,0,0,0.9599999785423279,0,0)"></g></g></g></g><g stroke-linecap="butt" stroke-linejoin="round" stroke-miterlimit="4" transform="matrix(1,0,0,1,178.70401000976562,0)" opacity="1" style="display: inherit;"><g><g transform="matrix(1,0,0,1,0,0)" opacity="1" style="display: block;"><path d=" M24.65,-2.22 C24.65,-2.22 24.65,-7.44 24.65,-7.44 C24.65,-8.7 25.62,-9.67 26.88,-9.67 C26.88,-9.67 32.29,-9.67 32.29,-9.67 C33.55,-9.67 34.51,-8.7 34.51,-7.44 C34.51,-7.44 34.51,-2.22 34.51,-2.22 C34.51,-0.97 35.48,0 36.74,0 C36.74,0 54.24,0 54.24,0 C54.24,0 54.24,-9.67 54.24,-9.67 C54.24,-9.67 36.74,-9.67 36.74,-9.67 C35.48,-9.67 34.51,-10.63 34.51,-11.89 C34.51,-11.89 34.51,-55.78 34.51,-55.78 C34.51,-57.04 33.55,-58.01 32.29,-58.01 C32.29,-58.01 26.88,-58.01 26.88,-58.01 C25.62,-58.01 24.65,-58.97 24.65,-60.23 C24.65,-60.23 24.65,-65.45 24.65,-65.45 C24.65,-66.71 23.69,-67.68 22.43,-67.68 C22.43,-67.68 4.93,-67.68 4.93,-67.68 C4.93,-67.68 4.93,-58.01 4.93,-58.01 C4.93,-58.01 22.43,-58.01 22.43,-58.01 C23.69,-58.01 24.65,-57.04 24.65,-55.78 C24.65,-55.78 24.65,-11.89 24.65,-11.89 C24.65,-10.63 23.69,-9.67 22.43,-9.67 C22.43,-9.67 4.93,-9.67 4.93,-9.67 C4.93,-9.67 4.93,0 4.93,0 C4.93,0 22.43,0 22.43,0 C23.69,0 24.65,-0.97 24.65,-2.22z"></path><g opacity="1" transform="matrix(0.9599999785423279,0,0,0.9599999785423279,0,0)"></g></g></g></g></g></g></svg>